<?xml version="1.0" encoding="UTF-8" standalone="no"?><!DOCTYPE svg PUBLIC "-//W3C//DTD SVG 1.1//EN" "http://www.w3.org/Graphics/SVG/1.1/DTD/svg11.dtd"><svg width="100%" height="100%" viewBox="0 0 4125 1455" version="1.1" xmlns="http://www.w3.org/2000/svg" xmlns:xlink="http://www.w3.org/1999/xlink" xml:space="preserve" style="fill-rule:evenodd;clip-rule:evenodd;stroke-linejoin:round;stroke-miterlimit:1.41421;"><g><path d="M735.45,700.026l0,303.562l20.08,7.71l0,-266.28l245.483,0l0,360.508l71.996,27.637l-0.01,-433.137l-337.549,0l0,0Zm51.546,121.458l124.05,0l0,249.51l58.5,22.453l0,-316.96l-182.55,0l0,44.997Zm-572.162,-200.17l182.537,561.783l306.61,-191.592l0.01,0.008l0,-322.958l400.49,0l0,476.683l245.11,94.092l244.05,-523.338l-765.15,-478.117l-613.64,383.438l-0.017,0.001Zm2642.03,556.89c0,33 -14.49,47.722 -36.56,47.722c-20.06,0 -35.01,-14.27 -35.01,-47.72l0,-89.193l-19.63,0l0,88.525c0,46.825 23.2,64.217 53.97,64.217c32.55,0 56.86,-18.725 56.86,-64.883l0,-87.86l-19.62,0l0,89.193l-0.01,-0.001Zm-226.32,-1.332l14.72,-43.484c2.9,-9.145 5.36,-18.504 7.37,-27.204l0.67,0c2.24,8.7 4.46,17.62 7.58,27.434l14.95,43.254l-45.27,0l-0.02,0Zm11.37,-87.86l-51.05,150.285l20.07,0l15.61,-47.263l53.29,0l16.06,47.263l20.74,0l-51.27,-150.284l-23.42,0l-0.03,-0.001Zm-207.88,62.885l-72.69,0l0,-62.884l-19.61,0l0,150.284l19.62,0l0,-70.46l72.7,0l0,70.46l19.62,0l0,-150.284l-19.62,0l0,62.884l-0.02,0Zm-295.22,-197.113c-6.34,0 -15.31,0 -20.07,-1.058l0,-212.816c4.76,-1.06 14.26,-2.118 29.04,-2.118c57.04,0 98.76,32.75 98.76,102.45c0,80.275 -45.94,114.6 -107.73,113.542l0,0Zm144.159,-253.484c-34.845,-24.29 -78.15,-35.383 -146.27,-35.383c-42.255,0 -82.92,2.638 -113.55,7.917l0,348.554c18.483,3.167 49.112,6.33 95.06,6.33c69.71,0 128.33,-13.2 167.406,-43.83c34.325,-26.93 61.792,-73.925 61.792,-146.812c0,-65.484 -25.35,-109.846 -64.438,-136.775l0,-0.001Zm676.53,170.576l15.317,-63.9c5.292,-20.07 10.562,-49.113 15.846,-70.242l1.06,0c5.27,21.13 12.14,50.17 17.43,70.242l16.36,63.9l-66.01,0l-0.003,0Zm98.754,-203.32l-126.737,0l-103.51,355.95l98.764,0l20.06,-82.393l91.9,0l22.71,82.392l102.98,0l-106.15,-355.95l-0.017,0.001Zm-69.162,485.562c-20.738,-8.017 -29.883,-14.925 -29.883,-28.76c0,-10.253 7.81,-22.52 28.33,-22.52c13.59,0 23.63,4.242 28.31,7.138l5.34,-16.054c-6.46,-3.567 -17.83,-7.125 -32.99,-7.125c-29.22,0 -48.62,17.387 -48.62,40.79c0,20.956 15.16,33.897 39.68,42.368c20.29,7.583 28.32,15.838 28.32,29.883c0,15.16 -11.6,25.42 -31.44,25.42c-13.38,0 -25.87,-4.236 -34.57,-9.595l-5.13,16.06c8.02,5.353 23.86,9.803 38.35,9.803c35.45,0 52.4,-20.288 52.4,-43.25c0,-22.07 -12.71,-34.117 -38.13,-44.158l0.033,0Zm831.276,22.754l14.712,-43.484c2.896,-9.145 5.354,-18.504 7.358,-27.204l0.667,0c2.23,8.7 4.467,17.62 7.583,27.434l14.942,43.254l-45.262,0Zm11.366,-87.86l-51.066,150.285l20.08,0l15.6,-47.263l53.295,0l16.048,47.263l20.75,0l-51.28,-150.284l-23.41,0l-0.017,-0.001Zm-68.425,-142.674l0,-65.48l127.81,0l0,-77.108l-127.81,0l0,-57.03l135.73,0l0,-78.164l-231.32,0l0,355.95l238.71,0l0,-78.166l-143.129,0l0.009,-0.002Zm-482.56,213.142l-19.85,0l0,-54.63c3.35,-0.895 9.81,-1.79 19.18,-1.79c20.51,0 34.56,8.47 34.56,27.874c0,17.17 -13.16,28.546 -33.9,28.546l0.01,0Zm25.19,8.246l0,-0.67c15.61,-5.355 28.32,-18.513 28.32,-38.134c0,-11.817 -4.46,-22.07 -11.82,-28.542c-9.37,-8.47 -22.97,-12.483 -43.71,-12.483c-13.16,0 -27.44,1.346 -37.24,3.346l0,148.054l19.39,0l0,-65.104l18.29,0c17.61,0.666 25.86,8.475 30.32,29.208c4.01,18.74 7.36,31.45 9.81,35.9l20.07,0c-2.9,-5.79 -6.47,-20.29 -11.37,-41.24c-3.79,-15.61 -10.7,-26.32 -22.08,-30.33l0.02,-0.005Zm-230.79,-62.208l45.72,0l0,133.78l19.62,0l0,-133.78l45.93,0l0,-16.505l-111.27,0l0,16.505Zm629.47,133.78l19.62,0l0,-150.285l-19.62,0l0,150.285Zm-117.29,-150.285l-19.62,0l0,150.284l83.83,0l0,-16.267l-64.22,0l0,-134.017l0.01,0Zm-161.44,87.86l14.71,-43.485c2.9,-9.145 5.35,-18.504 7.36,-27.204l0.67,0c2.23,8.7 4.46,17.62 7.58,27.434l14.93,43.254l-45.26,0l0.01,0.001Zm11.37,-87.86l-51.07,150.284l20.07,0l15.61,-47.263l53.29,0l16.05,47.263l20.73,0l-51.29,-150.284l-23.4,0l0.01,0Zm-1719.03,65.105c-20.74,-8.017 -29.89,-14.925 -29.89,-28.76c0,-10.253 7.8,-22.52 28.32,-22.52c13.593,0 23.63,4.242 28.32,7.138l5.35,-16.054c-6.47,-3.567 -17.84,-7.125 -33.01,-7.125c-29.2,0 -48.61,17.387 -48.61,40.79c0,20.956 15.16,33.897 39.69,42.368c20.29,7.583 28.313,15.838 28.313,29.883c0,15.16 -11.6,25.42 -31.44,25.42c-13.387,0 -25.87,-4.236 -34.567,-9.595l-5.124,16.06c8.03,5.353 23.867,9.803 38.36,9.803c35.446,0 52.396,-20.288 52.396,-43.25c0,-22.07 -12.7,-34.117 -38.124,-44.158l0.016,0Zm888.99,-207.78l-143.119,0l0,-65.48l127.806,0l0,-77.108l-127.8,0l0,-57.03l135.723,0l0,-78.164l-231.31,0l0,355.95l238.7,0l0,-78.166l0,-0.002Zm214.25,-1.587l-90.15,0l0,-276.191l-95.58,0l0,355.95l162.54,0l23.19,-79.754l0,-0.005Zm459.64,-276.19l-95.6,0l0,355.95l95.6,0l0,-355.951l0,0.001Zm-1398.78,557.37l-0.22,0c-30.55,0 -47.94,-29.21 -47.94,-60.87c0,-32.56 16.06,-62.66 48.38,-62.66c32.34,0 47.94,31.23 47.94,61.1c0,34.11 -17.4,62.44 -48.17,62.44l0.01,-0.01Zm0.89,-139.36c-40.14,0 -69.57,31.22 -69.57,78.93c0,45.49 27.64,76.26 67.552,76.26l0.227,0c38.13,0 69.57,-27.65 69.57,-79.16c0,-44.59 -26.53,-76.03 -67.787,-76.03l0.008,0Zm1534.68,-345.651c4.74,-1.06 14.26,-2.11 29.04,-2.11c57.03,0 98.76,32.75 98.76,102.45c0,80.277 -45.95,114.6 -107.74,113.54c-6.33,0 -15.314,0 -20.055,-1.06l0,-212.83l-0.005,0.01Zm166.87,243.98c34.337,-26.93 61.79,-73.92 61.79,-146.81c0,-65.48 -25.34,-109.84 -64.43,-136.77c-34.86,-24.29 -78.16,-35.38 -146.29,-35.38c-42.24,0 -82.91,2.64 -113.54,7.92l0,348.55c18.495,3.166 49.12,6.33 95.07,6.33c69.696,0 128.33,-13.2 167.405,-43.83l-0.005,-0.01Zm-1483.67,193.31c0,33 -14.495,47.72 -36.574,47.72c-20.067,0 -35.004,-14.27 -35.004,-47.72l0,-89.19l-19.62,0l0,88.524c0,46.825 23.19,64.217 53.96,64.217c32.567,0 56.867,-18.72 56.867,-64.88l0,-87.86l-19.62,0l0,89.2l-0.009,-0.011Zm-304,-306.333l15.313,-63.9c5.28,-20.07 10.567,-49.11 15.846,-70.24l1.05,0c5.28,21.13 12.14,50.17 17.42,70.24l16.36,63.9l-66.01,0l0.021,0Zm-27.987,-203.32l-103.513,355.95l98.75,0l20.08,-82.39l91.884,0l22.713,82.39l102.98,0l-106.14,-355.95l-126.75,0l-0.004,0Zm406.47,436.962l45.7,0l0,133.78l19.622,0l0,-133.78l45.933,0l0,-16.51l-111.25,0l0,16.5l-0.005,0.01Z" style="fill:#231f20;fill-rule:nonzero;"/><path d="M1349.58,215.642l-140.68,259.95l384.722,240.4l-244.042,-500.35l0,0Z" style="fill:#58595b;fill-rule:nonzero;"/></g></svg>